Just the interviews. Enjoy and please share.																																										******************************************************************************************************														                                                                      FILE LIST:																				Regis_Caroline_Kennedy_720p_20110406_TTL.avi																					                                                                Regis_Jennifer_Garner_720p_20110406_TTL.avi																					                Regis_Jesse_Tyler_Ferguson_720p_20110406_TTL.avi					    															******************************************************************************************************																																								Regis_Jennifer_Garner_720p_20110406_TTL.avi
Format                           : AVI
Format/Info                      : Audio Video Interleave
File size                        : 231 MiB
Duration                         : 14mn 2s
Overall bit rate                 : 2 296 Kbps
Movie name                       : Regis_Jennifer Garner_720p_20110406_TTL.mpg
Director                         : created.with.SUPER(C).v2010.bld.37
Writing application              : SUPER(C)   

Video
ID                               : 0
Format                           : MPEG-4 Visual
Format profile                   : Simple@L3
Format settings, BVOP            : No
Format settings, QPel            : No
Format settings, GMC             : No warppoints
Format settings, Matrix          : Default (H.263)
Codec ID                         : XVID
Codec ID/Hint                    : XviD
Duration                         : 7mn 1s
Bit rate                         : 4 467 Kbps
Width                            : 1 280 pixels
Height                           : 720 pixels
Display aspect ratio             : 16:9
Frame rate                       : 29.970 fps
Color space                      : YUV
Chroma subsampling               : 4:2:0
Bit depth                        : 8 bits
Scan type                        : Progressive
Bits/(Pixel*Frame)               : 0.162
Stream size                      : 224 MiB (97%)
Writing library                  : XviD 1.1.2 (UTC 2006-11-01)

Audio
ID                               : 1
Format                           : MPEG Audio
Format version                   : Version 2
Format profile                   : Layer 3
Mode                             : Joint stereo
Mode extension                   : MS Stereo
Codec ID                         : 55
Codec ID/Hint                    : MP3
Duration                         : 14mn 2s
Bit rate mode                    : Constant
Bit rate                         : 112 Kbps
Channel(s)                       : 2 channels
Sampling rate                    : 22.05 KHz
Stream size                      : 5.63 MiB (2%)
Alignment                        : Aligned on interleaves
Interleave, duration             : 26 ms (0.78 video frame)
Interleave, preload duration     : 26 ms
Writing library                  : LAME3.98

